<?xml version="1.0" standalone="no"?>
<!DOCTYPE svg PUBLIC "-//W3C//DTD SVG 20010904//EN"
 "http://www.w3.org/TR/2001/REC-SVG-20010904/DTD/svg10.dtd">
<svg version="1.0" xmlns="http://www.w3.org/2000/svg"
 width="1024.000000pt" height="1024.000000pt" viewBox="0 0 1024.000000 1024.000000"
 preserveAspectRatio="xMidYMid meet">

<g transform="translate(0.000000,1024.000000) scale(0.100000,-0.100000)"
fill="#ffffff" stroke="none">
<path d="M3955 8569 c-165 -18 -334 -84 -465 -182 -181 -134 -346 -345 -465
-592 -104 -215 -174 -748 -146 -1097 6 -75 27 -230 45 -345 19 -114 37 -221
39 -238 l4 -30 2 33 c3 71 44 241 101 415 32 100 64 202 70 227 24 92 114 319
180 455 197 406 432 625 675 628 116 1 257 -53 393 -150 79 -56 292 -235 443
-371 221 -201 316 -246 514 -247 106 0 125 3 162 22 63 34 128 138 153 242 64
273 -204 663 -635 924 -373 226 -768 339 -1070 306z"/>
<path d="M6760 8279 c-231 -60 -412 -203 -511 -404 -63 -127 -83 -218 -75
-340 17 -288 203 -543 470 -646 157 -61 301 -73 462 -40 320 66 551 311 604
643 37 228 -110 530 -328 674 -179 119 -427 164 -622 113z"/>
<path d="M9437 6938 c-29 -123 -182 -411 -323 -609 -179 -251 -586 -593 -866
-730 -93 -45 -112 -50 -170 -50 -78 0 -132 19 -215 77 -142 100 -210 208 -323
514 -96 259 -154 364 -249 453 -67 62 -148 100 -228 105 -53 4 -68 0 -113 -24
-99 -54 -189 -181 -225 -319 -19 -71 -22 -256 -6 -330 92 -408 358 -794 711
-1030 148 -99 263 -135 430 -135 158 0 266 28 455 119 401 194 720 514 932
936 133 263 204 452 243 646 19 92 20 122 14 276 -7 168 -7 173 -28 173 -19 0
-24 -10 -39 -72z"/>
<path d="M3507 5709 c-55 -13 -129 -53 -164 -89 -124 -127 -150 -387 -57 -573
42 -84 101 -153 226 -264 65 -58 118 -109 118 -114 0 -25 -400 -440 -1009
-1049 -372 -371 -818 -823 -991 -1005 -173 -181 -376 -388 -450 -460 -74 -71
-216 -210 -315 -308 -165 -163 -177 -178 -145 -172 99 19 411 195 1170 660
364 223 532 323 1160 690 585 342 895 543 1052 682 40 35 117 96 172 136 54
40 146 107 204 150 81 60 110 76 126 71 42 -13 199 -108 274 -164 108 -81 119
-96 127 -160 6 -50 4 -59 -25 -102 -70 -105 -221 -219 -430 -323 -63 -32 -232
-120 -376 -196 -459 -242 -720 -368 -1046 -507 -65 -27 -143 -65 -174 -83 -55
-34 -55 -34 -27 -40 111 -25 728 21 963 72 54 12 533 140 785 211 345 96 575
193 773 324 125 83 276 222 353 323 65 86 150 256 156 312 7 64 -21 180 -64
267 -100 203 -434 580 -766 868 -76 65 -173 150 -215 187 -176 156 -504 388
-657 465 -115 57 -399 171 -470 188 -66 15 -218 17 -278 3z"/>
</g>
</svg>
